HIERARCHY
ROOT joint_Root
{
	OFFSET 0.0 0.0 0.0
	CHANNELS 6 Xposition Yposition Zposition Zrotation Xrotation Yrotation 
	JOINT Hips
	{
		OFFSET 4.5925 91.4895 -427.239
		CHANNELS 6 Xposition Yposition Zposition Zrotation Xrotation Yrotation 
		JOINT Spine
		{
			OFFSET 15.7357 0.0 0.0
			CHANNELS 6 Xposition Yposition Zposition Zrotation Xrotation Yrotation 
			JOINT Chest
			{
				OFFSET 8.98455 -0.406207 0.0
				CHANNELS 6 Xposition Yposition Zposition Zrotation Xrotation Yrotation 
				JOINT Neck
				{
					OFFSET 16.3773 0.0 0.0
					CHANNELS 6 Xposition Yposition Zposition Zrotation Xrotation Yrotation 
					JOINT Head
					{
						OFFSET 6.45672 0.0 0.0
						CHANNELS 6 Xposition Yposition Zposition Zrotation Xrotation Yrotation 
						End Site
						{
							OFFSET 0.0 0.0 0.0
						}
					}
				}
				JOINT Shoulder_L
				{
					OFFSET 12.9942 -0.242716 4.98039
					CHANNELS 6 Xposition Yposition Zposition Zrotation Xrotation Yrotation 
					JOINT UpperArm_L
					{
						OFFSET 5.34809 0.0 0.0
						CHANNELS 6 Xposition Yposition Zposition Zrotation Xrotation Yrotation 
						JOINT LowerArm_L
						{
							OFFSET 24.3286 1.87007e-05 0.0
							CHANNELS 6 Xposition Yposition Zposition Zrotation Xrotation Yrotation 
							JOINT Hand_L
							{
								OFFSET 22.2916 0.0 0.0
								CHANNELS 6 Xposition Yposition Zposition Zrotation Xrotation Yrotation 
								End Site
								{
									OFFSET 0.0 0.0 0.0
								}
							}
						}
					}
				}
				JOINT Shoulder_R
				{
					OFFSET 12.9945 -0.242716 -4.98039
					CHANNELS 6 Xposition Yposition Zposition Zrotation Xrotation Yrotation 
					JOINT UpperArm_R
					{
						OFFSET -5.34813 0.0 0.0
						CHANNELS 6 Xposition Yposition Zposition Zrotation Xrotation Yrotation 
						JOINT LowerArm_R
						{
							OFFSET -24.3289 0.000322201 0.0
							CHANNELS 6 Xposition Yposition Zposition Zrotation Xrotation Yrotation 
							JOINT Hand_R
							{
								OFFSET -22.2915 -0.000108084 0.0
								CHANNELS 6 Xposition Yposition Zposition Zrotation Xrotation Yrotation 
								End Site
								{
									OFFSET 0.0 0.0 0.0
								}
							}
						}
					}
				}
			}
		}
		JOINT UpperLeg_L
		{
			OFFSET -2.19248 -6.46944 0.0
			CHANNELS 6 Xposition Yposition Zposition Zrotation Xrotation Yrotation 
			JOINT LowerLeg_L
			{
				OFFSET 39.0811 0.0 -1.23785e-05
				CHANNELS 6 Xposition Yposition Zposition Zrotation Xrotation Yrotation 
				JOINT Foot_L
				{
					OFFSET 40.9854 0.0 -1.26872e-05
					CHANNELS 6 Xposition Yposition Zposition Zrotation Xrotation Yrotation 
					JOINT Toes_L
					{
						OFFSET 11.7543 0.0 0.0
						CHANNELS 6 Xposition Yposition Zposition Zrotation Xrotation Yrotation 
						End Site
						{
							OFFSET 0.0 0.0 0.0
						}
					}
				}
			}
		}
		JOINT UpperLeg_R
		{
			OFFSET -2.19251 6.46944 0.0
			CHANNELS 6 Xposition Yposition Zposition Zrotation Xrotation Yrotation 
			JOINT LowerLeg_R
			{
				OFFSET -39.0811 -0.00228153 -0.0401928
				CHANNELS 6 Xposition Yposition Zposition Zrotation Xrotation Yrotation 
				JOINT Foot_R
				{
					OFFSET -40.9854 0.0 0.0
					CHANNELS 6 Xposition Yposition Zposition Zrotation Xrotation Yrotation 
					JOINT Toes_R
					{
						OFFSET -11.7543 0.0 0.0
						CHANNELS 6 Xposition Yposition Zposition Zrotation Xrotation Yrotation 
						End Site
						{
							OFFSET 0.0 0.0 0.0
						}
					}
				}
			}
		}
	}
}
MOTION
Frames:	9
Frame Time:	0.0333333
0.000000 0.000000 0.000000 0.000000 0.000000 -0.000000 -1.311580 90.457200 4.568050 89.364900 -3.680700 9.803490 15.735700 0.000005 -0.000001 87.681000 82.295300 -87.962300 8.984550 -0.406207 -0.000000 7.629590 -0.620714 -0.520637 16.377300 -0.000001 -0.000001 4.246650 -3.788620 3.370520 6.456720 -0.000001 -0.000000 -13.074800 -2.057550 1.949170 12.994200 -0.242716 4.980390 -91.901900 6.943890 -74.641600 5.348090 -0.000007 -0.000001 -58.954100 43.409500 -18.389900 24.328600 0.000019 0.000005 8.060080 22.118400 -20.611400 22.291600 -0.000001 0.000005 10.507200 5.257590 1.231340 12.994500 -0.242716 -4.980390 88.352400 11.658000 -81.898800 -5.348130 -0.000001 -0.000004 -61.780100 33.211100 -11.783600 -24.328900 0.000322 -0.000009 0.438307 1.359660 -17.909700 -22.291500 -0.000108 -0.000004 12.853700 5.369080 -1.957960 -2.192480 -6.469440 -0.000000 -174.104000 -9.973670 3.872650 39.081100 -0.000007 -0.000012 -0.174604 0.309246 29.449800 40.985400 -0.000006 -0.000013 -0.799176 4.356570 -73.226700 11.754300 -0.000000 0.000003 -0.000096 -0.000996 -16.615800 -2.192510 6.469440 -0.000001 174.297000 16.846400 -175.119000 -39.081100 -0.002282 -0.040193 -0.111338 0.207673 28.900100 -40.985400 0.000008 0.000006 3.862370 11.242800 -73.877400 -11.754300 -0.000006 -0.000006 -0.004177 -0.053267 -18.740000
0.000000 0.000000 0.000000 0.000000 0.000000 -0.000000 -1.275350 90.464100 4.577730 89.359600 -3.754350 9.746990 15.735700 0.000005 -0.000001 88.055300 82.306400 -88.413500 8.984550 -0.406207 -0.000000 7.610930 -0.519599 -0.680979 16.377300 -0.000001 -0.000001 4.632300 -3.895870 3.257960 6.456720 -0.000001 -0.000000 -12.377800 -2.196610 1.597490 12.994200 -0.242716 4.980390 -91.907700 6.912040 -74.529400 5.348090 -0.000007 -0.000001 -58.609100 42.475900 -18.358000 24.328600 0.000019 0.000005 7.889030 22.381300 -19.996900 22.291600 -0.000001 0.000005 10.630900 5.255000 1.300070 12.994500 -0.242716 -4.980390 88.323300 11.650800 -81.752400 -5.348130 -0.000001 -0.000004 -61.183300 32.696300 -12.005900 -24.328900 0.000322 -0.000009 0.567275 1.753830 -17.957800 -22.291500 -0.000108 -0.000004 12.918300 5.371760 -2.041200 -2.192480 -6.469440 -0.000000 -174.128000 -10.066000 3.854840 39.081100 -0.000007 -0.000012 -0.171394 0.304027 29.412200 40.985400 -0.000006 -0.000013 -0.782467 4.314600 -73.224000 11.754300 -0.000000 0.000003 -0.000098 -0.001011 -16.616400 -2.192510 6.469440 -0.000001 174.322000 16.781000 -175.172000 -39.081100 -0.002282 -0.040193 -0.104419 0.195334 28.876000 -40.985400 0.000008 0.000006 3.936160 11.213900 -73.882000 -11.754300 -0.000006 -0.000006 -0.004224 -0.053750 -18.759600
0.000000 0.000000 0.000000 0.000000 0.000000 -0.000000 -1.244750 90.466700 4.582740 89.315800 -3.735210 9.692960 15.735700 0.000005 -0.000001 88.331500 82.318900 -88.753000 8.984550 -0.406207 -0.000000 7.588410 -0.444881 -0.812561 16.377300 -0.000001 -0.000001 5.096830 -4.013870 3.135960 6.456720 -0.000001 -0.000000 -11.640900 -2.336210 1.141310 12.994200 -0.242716 4.980390 -91.918200 6.884720 -74.390300 5.348090 -0.000007 -0.000001 -58.219500 41.728700 -18.388900 24.328600 0.000019 0.000005 7.741970 22.472500 -19.578800 22.291600 -0.000001 0.000005 10.667300 5.251700 1.387850 12.994500 -0.242716 -4.980390 88.269300 11.624700 -81.472000 -5.348130 -0.000001 -0.000004 -60.547600 31.655300 -12.330400 -24.328900 0.000322 -0.000009 0.651976 1.977470 -18.278800 -22.291500 -0.000108 -0.000004 13.099600 5.376160 -2.178160 -2.192480 -6.469440 -0.000000 -174.106000 -10.064900 3.784240 39.081100 -0.000007 -0.000012 -0.172182 0.305123 29.436400 40.985400 -0.000006 -0.000013 -0.755369 4.345410 -73.234200 11.754300 -0.000000 0.000003 -0.000098 -0.001011 -16.616400 -2.192510 6.469440 -0.000001 174.364000 16.838300 -175.212000 -39.081100 -0.002282 -0.040193 -0.099209 0.186075 28.851600 -40.985400 0.000008 0.000006 4.000170 11.231500 -73.880400 -11.754300 -0.000006 -0.000006 -0.004181 -0.053307 -18.741600
0.000000 0.000000 0.000000 0.000000 0.000000 -0.000000 -1.214250 90.468800 4.586170 89.283500 -3.739480 9.647920 15.735700 0.000005 -0.000001 88.394800 82.327000 -88.883000 8.984550 -0.406207 -0.000000 7.572540 -0.427371 -0.947072 16.377300 -0.000001 -0.000001 5.617410 -4.060090 2.941030 6.456720 -0.000001 -0.000000 -10.879500 -2.455820 0.677167 12.994200 -0.242716 4.980390 -91.940200 6.888420 -74.227500 5.348090 -0.000007 -0.000001 -57.937900 41.037800 -18.193900 24.328600 0.000019 0.000005 7.691430 22.430100 -19.491500 22.291600 -0.000001 0.000005 10.857800 5.250260 1.425890 12.994500 -0.242716 -4.980390 88.217300 11.575800 -81.183500 -5.348130 -0.000001 -0.000004 -59.652400 30.568500 -12.868100 -24.328900 0.000322 -0.000009 0.681264 1.974530 -19.067700 -22.291500 -0.000108 -0.000004 13.457900 5.375060 -2.143460 -2.192480 -6.469440 -0.000000 -174.111000 -10.051000 3.727450 39.081100 -0.000007 -0.000012 -0.171667 0.303983 29.454700 40.985400 -0.000006 -0.000013 -0.742033 4.309810 -73.244500 11.754300 -0.000000 0.000003 -0.000096 -0.000997 -16.615800 -2.192510 6.469440 -0.000001 174.377000 16.878900 -175.239000 -39.081100 -0.002282 -0.040193 -0.096142 0.180696 28.826400 -40.985400 0.000008 0.000006 4.034170 11.257900 -73.875700 -11.754300 -0.000006 -0.000006 -0.004156 -0.053052 -18.731200
0.000000 0.000000 0.000000 0.000000 0.000000 -0.000000 -1.166680 90.477100 4.568380 89.265900 -3.794440 9.585010 15.735700 0.000005 -0.000001 88.481600 82.340500 -89.042300 8.984550 -0.406207 -0.000000 7.546090 -0.403267 -1.093620 16.377300 -0.000001 -0.000001 6.126420 -4.101390 2.731200 6.456720 -0.000001 -0.000000 -9.959090 -2.529670 0.096351 12.994200 -0.242716 4.980390 -91.961000 6.870940 -74.029200 5.348090 -0.000007 -0.000001 -57.721800 40.494600 -18.019000 24.328600 0.000019 0.000005 7.651540 22.289200 -19.504400 22.291600 -0.000001 0.000005 10.861500 5.252220 1.374110 12.994500 -0.242716 -4.980390 88.155900 11.550900 -80.865600 -5.348130 -0.000001 -0.000004 -58.442400 29.150600 -13.693300 -24.328900 0.000322 -0.000009 0.732293 1.986680 -20.263600 -22.291500 -0.000108 -0.000004 13.489800 5.380320 -2.308280 -2.192480 -6.469440 -0.000000 -174.147000 -10.056000 3.663320 39.081100 -0.000007 -0.000012 -0.171134 0.303210 29.441000 40.985400 -0.000006 -0.000013 -0.713323 4.274200 -73.235200 11.754300 -0.000000 0.000003 -0.000095 -0.000981 -16.615300 -2.192510 6.469440 -0.000001 174.403000 16.837800 -175.325000 -39.081100 -0.002282 -0.040193 -0.092652 0.174495 28.806800 -40.985400 0.000008 0.000006 4.054450 11.265600 -73.844000 -11.754300 -0.000006 -0.000006 -0.004064 -0.052102 -18.692500
0.000000 0.000000 0.000000 0.000000 0.000000 -0.000000 -1.093800 90.479200 4.556010 89.241600 -3.947010 9.547190 15.735700 0.000005 -0.000001 88.611500 82.372100 -89.232400 8.984550 -0.406207 -0.000000 7.483720 -0.366721 -1.216560 16.377300 -0.000001 -0.000001 6.752870 -4.109480 2.537670 6.456720 -0.000001 -0.000000 -8.883630 -2.556870 -0.665166 12.994200 -0.242716 4.980390 -91.985900 6.861350 -73.814900 5.348090 -0.000007 -0.000001 -57.664300 40.147000 -17.719400 24.328600 0.000019 0.000005 7.701750 22.327300 -19.594700 22.291600 -0.000001 0.000005 10.864400 5.252500 1.366400 12.994500 -0.242716 -4.980390 88.112200 11.447600 -80.570700 -5.348130 -0.000001 -0.000004 -56.913300 27.724900 -14.697100 -24.328900 0.000322 -0.000009 0.699805 1.730520 -22.055900 -22.291500 -0.000108 -0.000004 14.066000 5.390110 -2.615570 -2.192480 -6.469440 -0.000000 -174.180000 -10.137300 3.627180 39.081100 -0.000007 -0.000012 -0.168459 0.298254 29.458800 40.985400 -0.000006 -0.000013 -0.682426 4.184880 -73.253400 11.754300 -0.000000 0.000003 -0.000095 -0.000989 -16.615500 -2.192510 6.469440 -0.000001 174.437000 16.731300 -175.417000 -39.081100 -0.002282 -0.040193 -0.084539 0.159553 28.835500 -40.985400 0.000008 0.000006 4.161460 11.253400 -73.852300 -11.754300 -0.000006 -0.000006 -0.004186 -0.053356 -18.743600
0.000000 0.000000 0.000000 0.000000 0.000000 -0.000000 -1.012250 90.491200 4.541030 89.217000 -4.077140 9.489470 15.735700 0.000005 -0.000001 88.606900 82.426300 -89.295100 8.984550 -0.406207 -0.000000 7.375100 -0.364527 -1.351430 16.377300 -0.000001 -0.000001 7.485400 -4.097790 2.333720 6.456720 -0.000001 -0.000000 -7.691170 -2.583750 -1.487260 12.994200 -0.242716 4.980390 -91.999600 6.821490 -73.619400 5.348090 -0.000007 -0.000001 -57.706700 39.967800 -17.441300 24.328600 0.000019 0.000005 7.691970 22.325800 -19.572600 22.291600 -0.000001 0.000005 10.695300 5.255220 1.294500 12.994500 -0.242716 -4.980390 88.077900 11.304600 -80.285200 -5.348130 -0.000001 -0.000004 -55.091700 26.201400 -16.039300 -24.328900 0.000322 -0.000009 0.432334 0.970349 -24.081000 -22.291500 -0.000108 -0.000004 14.894400 5.412120 -3.332420 -2.192480 -6.469440 -0.000000 -174.225000 -10.213900 3.590230 39.081100 -0.000007 -0.000012 -0.166803 0.295696 29.427700 40.985400 -0.000006 -0.000013 -0.653808 4.074370 -73.243500 11.754300 -0.000000 0.000003 -0.000098 -0.001013 -16.616400 -2.192510 6.469440 -0.000001 174.475000 16.616500 -175.509000 -39.081100 -0.002282 -0.040193 -0.075143 0.142635 28.810400 -40.985400 0.000008 0.000006 4.246260 11.245500 -73.825200 -11.754300 -0.000006 -0.000006 -0.003998 -0.051419 -18.664700
0.000000 0.000000 0.000000 0.000000 0.000000 -0.000000 -0.914375 90.495300 4.502540 89.206200 -4.260020 9.438590 15.735700 0.000005 -0.000001 88.569200 82.489400 -89.325500 8.984550 -0.406207 -0.000000 7.248660 -0.370285 -1.487380 16.377300 -0.000001 -0.000001 8.346920 -4.084900 2.088880 6.456720 -0.000001 -0.000000 -6.428110 -2.633080 -2.391380 12.994200 -0.242716 4.980390 -92.008900 6.799030 -73.496100 5.348090 -0.000007 -0.000001 -57.932100 39.773400 -17.031400 24.328600 0.000019 0.000005 7.714070 22.361100 -19.598000 22.291600 -0.000001 0.000005 10.705400 5.255490 1.286660 12.994500 -0.242716 -4.980390 88.060200 11.054700 -79.983000 -5.348130 -0.000001 -0.000004 -53.175300 24.367200 -17.689100 -24.328900 0.000322 -0.000009 0.369304 0.747277 -26.366500 -22.291500 -0.000108 -0.000004 15.848200 5.425490 -3.783580 -2.192480 -6.469440 -0.000000 -174.303000 -10.289600 3.530320 39.081100 -0.000007 -0.000012 -0.165735 0.293631 29.442100 40.985400 -0.000006 -0.000013 -0.614240 3.935810 -73.252500 11.754300 -0.000000 0.000003 -0.000088 -0.000921 -16.613000 -2.192510 6.469440 -0.000001 174.498000 16.439500 -175.654000 -39.081100 -0.002282 -0.040193 -0.068762 0.130768 28.859300 -40.985400 0.000008 0.000006 4.343700 11.210000 -73.819400 -11.754300 -0.000006 -0.000006 -0.004233 -0.053841 -18.763300
0.000000 0.000000 0.000000 0.000000 0.000000 -0.000000 -0.811259 90.501700 4.477200 89.174300 -4.446600 9.442420 15.735700 0.000005 -0.000001 88.334200 82.546100 -89.157600 8.984550 -0.406207 -0.000000 7.133070 -0.427287 -1.618480 16.377300 -0.000001 -0.000001 9.260950 -4.037620 1.927540 6.456720 -0.000001 -0.000000 -5.097320 -2.668250 -3.455200 12.994200 -0.242716 4.980390 -92.034300 6.757700 -73.203300 5.348090 -0.000007 -0.000001 -58.171300 39.859800 -16.705100 24.328600 0.000019 0.000005 7.759040 22.469600 -19.621400 22.291600 -0.000001 0.000005 10.733700 5.252160 1.375610 12.994500 -0.242716 -4.980390 88.080600 10.642600 -79.715200 -5.348130 -0.000001 -0.000004 -51.310300 22.316100 -19.661500 -24.328900 0.000322 -0.000009 0.249825 0.458483 -28.693500 -22.291500 -0.000108 -0.000004 16.687000 5.433080 -4.043980 -2.192480 -6.469440 -0.000000 -174.347000 -10.389400 3.537920 39.081100 -0.000007 -0.000012 -0.161347 0.285769 29.449600 40.985400 -0.000006 -0.000013 -0.564531 3.819530 -73.264000 11.754300 -0.000000 0.000003 -0.000090 -0.000940 -16.613700 -2.192510 6.469440 -0.000001 174.529000 16.268900 -175.723000 -39.081100 -0.002282 -0.040193 -0.057646 0.110501 28.880300 -40.985400 0.000008 0.000006 4.460280 11.174900 -73.806800 -11.754300 -0.000006 -0.000006 -0.004158 -0.053076 -18.732200
